<?xml version="1.0" encoding="UTF-8"?><svg xmlns="http://www.w3.org/2000/svg" viewBox="0 0 700 500"><defs><style>.cls-1{fill:none;}.cls-2{fill:#ff4c46;}.cls-3{fill:#fff;}</style></defs><g id="artwork"><path class="cls-2" d="M305.2,126.2c-34.6,8.5-67.6,39.4-87.7,78.1-14.5,28-24.2,97.8-28.4,134-1.8,15.4,4.8,30.6,17.1,39.9,29,21.7,86.3,54.4,175.7,32.4,81.8-20.1,114.3-67,127-98.7,7.1-17.6,5.6-37.4-4-53.7-16.2-27.6-47.5-74.6-86.4-102.7-44.3-31.8-78.8-37.8-113.3-29.3Z"/><path class="cls-3" d="M355.3,201.7c41.7-48,76.8-24.4,100.7,5.6,17.3,21.6,32.8,66.3-1.5,82.4-26.3,12.4-58.9-9.2-84.4-30.5-2.6-2.2-6.5-1.8-8.7,.8-.4,.5-.7,1-1,1.6-8.1,20.3-26.2,79.7-75.9,78.8-47.1-.9-69.2-48-59.6-86.8,14-58.4,49.3-85.2,130.4-51.9Zm10.5,72.9l-14,28c-.6,1.2-.2,2.8,1.1,3.4,.1,0,.1,.1,.2,.1,5.3,2.1,18.1,6.5,28.9,3.9,8.1-2.3,15.6-6.3,21.9-11.9,1-.9,1.1-2.5,.2-3.6-.1-.2-.3-.3-.5-.4l-31.1-21.4c-2.2-1.4-5.1-.7-6.5,1.5-.1,.2-.1,.3-.2,.4h0Zm-9.5,44.9c7.4,4.9,22.8,14.8,31.6,19.2,1.7,.9,3.8,.2,4.7-1.5l14-26.3c.2-.3,.1-.8-.2-1-.3-.2-.6-.2-.8,0-14.2,9.9-32,12.9-48.7,8.2-.4-.1-.8,.2-.8,.6-.1,.4,0,.6,.2,.8Z"/><path class="cls-2" d="M345.9,204.1c6.7,3,14.5,1.6,19.8-3.5l104.8-102.7c1.4-1.4,1.3-3.6,0-5-.9-.9-2.2-1.2-3.5-.9l-130.2,44.7-166.3-19.3c-2.3-.2-4.3,1.5-4.5,3.8-.2,1.7,.8,3.4,2.4,4.2l177.5,78.7Z"/><path class="cls-2" d="M422,217.7c8.1,7.6,8.6,20.4,1,28.5s-20.4,8.6-28.5,1c-8.1-7.5-8.6-20.1-1.2-28.3,7-8.2,19.2-9.3,27.5-2.3,.4,.3,.8,.7,1.2,1.1Zm-94.3,25.6c2.3,1.9,4.4,3.9,6.6,5.8,.2,.2,.4,.3,.6,.4,.4,0,.7-.2,.7-.6,.1-.2,.1-.5,0-.7v-.3c-1.2-5-10.3-18.9-16.8-16-3.9,1.7-.8,5.1,1.8,6.4,2.5,1.4,4.9,3.1,7.1,5m-14.9,11.9c4.4,.2,8.8,.8,13.1,1.9,3.6,1.2,7.3,2.3,11,3.1,.5,.1,1.1-.2,1.3-.7,0-.5-.2-1-.6-1.4l-.2-.2c-12.9-13.7-34.1-14.3-49.7-5.1-3.7,2-6.9,5-9.1,8.6-.8,1.5-1.2,3.8,.2,4.6,1.5,.9,2.8,0,4-.8,8.9-6.2,19.3-9.7,30-10"/></g><g id="no_fill_or_stroke_boundary"><rect class="cls-1" width="700" height="500"/></g></svg>